<svg xmlns="http://www.w3.org/2000/svg" xmlns:xlink="http://www.w3.org/1999/xlink" xml:space="preserve" width="3000px" height="1200px" style="shape-rendering:geometricPrecision; text-rendering:geometricPrecision; image-rendering:optimizeQuality; fill-rule:evenodd; clip-rule:evenodd" viewBox="0 0 3000 1200"> <defs>    <style type="text/css">   <![CDATA[    @font-face { font-family:"Poppins Medium";font-variant:normal;font-style:normal;font-weight:500;src:url("#FontID0") format(svg)}    .fil0 {fill:none}    .fil10 {fill:black}    .fil4 {fill:#2DB34A}    .fil6 {fill:#363636}    .fil3 {fill:#CECECE}    .fil7 {fill:#E3E4E5}    .fil2 {fill:#F7911E}    .fil5 {fill:white}    .fil1 {fill:white}    .fil9 {fill:#2B2A29;fill-rule:nonzero}    .fil8 {fill:#393185;fill-rule:nonzero}    .fil11 {fill:black;fill-rule:nonzero}    .fil12 {fill:red;fill-rule:nonzero}    .fnt1 {font-weight:500;font-size:235.341px;font-family:'Poppins Medium'}    .fnt0 {font-weight:500;font-size:605.555px;font-family:'Poppins Medium'}   ]]>  </style> </defs> <g id="Layer_x0020_1">  <metadata id="CorelCorpID_0Corel-Layer"></metadata>  <rect class="fil0" x="35" y="177" width="2934" height="816"></rect>  <path class="fil1" d="M338 190c161,0 292,131 292,292 0,161 -131,292 -292,292 -161,0 -292,-131 -292,-292 0,-161 131,-292 292,-292z"></path>  <path class="fil2" d="M539 543c33,-111 -31,-228 -142,-262 -111,-33 -228,30 -260,141 -33,111 31,228 142,262 111,33 227,-29 260,-141z"></path>  <path class="fil3" d="M501 532c26,-90 -25,-185 -115,-212 -90,-28 -185,23 -211,113 -26,90 25,185 115,213 90,27 185,-24 211,-114z"></path>  <path class="fil4" d="M469 522c21,-72 -20,-149 -93,-171 -72,-22 -148,19 -169,92 -21,72 20,149 93,171 72,22 148,-19 169,-92z"></path>  <path class="fil5" d="M431 511c15,-52 -15,-106 -66,-121 -51,-16 -105,13 -120,64 -15,52 15,106 66,121 51,16 105,-13 120,-64z"></path>  <path class="fil6" d="M344 482c13,-43 21,-78 19,-78 -2,-1 -14,33 -26,75 -13,43 -21,78 -19,78 2,1 14,-33 26,-75z"></path>  <path class="fil6" d="M343 484c34,-27 61,-51 60,-52 -1,-2 -30,18 -65,45 -34,28 -61,51 -60,53 1,1 30,-19 65,-46z"></path>  <path class="fil6" d="M341 485c43,-8 77,-17 77,-19 0,-2 -35,3 -78,11 -43,8 -77,16 -77,18 0,2 35,-2 78,-10z"></path>  <path class="fil6" d="M341 477c42,12 76,24 75,26 -1,2 -35,-6 -77,-19 -42,-12 -75,-24 -74,-26 0,-2 35,6 76,19z"></path>  <path class="fil6" d="M343 478c-29,-33 -54,-58 -56,-57 -2,2 21,30 50,62 30,33 55,58 57,57 1,-2 -21,-29 -51,-62z"></path>  <path class="fil6" d="M344 480c9,43 14,79 12,79 -2,1 -11,-34 -20,-78 -8,-43 -14,-79 -11,-79 2,0 10,34 19,78z"></path>  <path class="fil7" d="M353 485c2,-7 -2,-14 -9,-17 -7,-2 -15,2 -17,9 -2,7 2,14 9,16 7,2 15,-2 17,-8z"></path>  <path class="fil6" d="M351 484c2,-6 -2,-12 -8,-14 -6,-2 -12,1 -14,7 -2,7 2,13 8,15 6,2 12,-2 14,-8z"></path>  <path class="fil7" d="M350 484c1,-5 -2,-11 -7,-13 -6,-1 -11,2 -13,7 -1,5 2,11 7,12 6,2 11,-1 13,-6z"></path>  <path class="fil8" d="M100 491l-1 -8c3,0 4,-1 6,-3 1,-1 1,-3 1,-5 0,-2 0,-4 -1,-5 -1,-2 -2,-2 -4,-2 -1,0 -1,0 -2,0 -1,1 -1,2 -2,3 0,1 -1,3 -1,6 -1,4 -3,7 -4,9 -2,2 -5,3 -7,3 -2,0 -4,0 -6,-1 -1,-2 -3,-3 -4,-5 0,-2 -1,-5 -1,-7 0,-5 1,-9 3,-11 2,-2 5,-4 8,-4l1 8c-2,0 -4,1 -4,2 -1,1 -2,2 -2,5 0,2 1,4 2,5 0,1 1,1 2,1 1,0 2,0 2,-1 1,-1 2,-3 3,-7 1,-4 2,-7 2,-8 1,-2 3,-3 4,-4 2,-1 4,-2 6,-2 2,0 4,1 6,2 2,1 3,3 4,5 1,2 2,5 2,8 0,5 -1,8 -4,11 -2,3 -5,4 -9,5zm13 -37l-37 -8 2 -8 14 4 3 -15 -14 -3 1 -7 37 7 -2 8 -16 -4 -3 15 16 3 -1 8zm8 -37l-35 -11 2 -7 36 11 -3 7zm5 -14l-34 -14 10 -26 6 2 -8 19 8 3 7 -17 6 2 -7 18 9 4 8 -20 6 3 -11 26zm14 -32l-31 -20 4 -6 26 16 10 -16 5 3 -14 23zm-11 -50l9 -11c2,-2 3,-4 5,-5 2,-1 4,-2 6,-2 2,0 5,0 7,1 2,1 5,3 8,5 2,2 4,4 5,6 1,2 2,5 2,7 1,2 0,4 -1,6 0,2 -2,4 -3,6l-9 11 -29 -24zm10 -2l19 16 3 -5c2,-1 2,-2 3,-3 0,-1 1,-3 1,-4 0,-1 -1,-2 -2,-3 -1,-2 -2,-4 -5,-5 -2,-2 -4,-4 -5,-4 -2,-1 -3,-1 -4,-1 -2,0 -3,1 -4,2 -1,0 -2,2 -4,4l-2 3zm33 -43l12 -8c2,-2 4,-3 6,-3 2,-1 4,-1 6,-1 3,1 5,2 7,3 2,2 4,4 6,7 2,2 3,5 3,7 1,3 1,5 1,7 0,2 -1,4 -3,6 -1,1 -2,3 -5,4l-11 9 -22 -31zm10 1l14 20 5 -3c2,-1 3,-2 3,-3 1,-1 2,-2 2,-3 0,-1 0,-2 0,-4 -1,-2 -2,-4 -4,-6 -1,-3 -3,-4 -4,-5 -2,-1 -3,-2 -4,-2 -1,0 -3,0 -4,1 -1,0 -3,1 -5,3l-3 2zm43 9l-17 -34 25 -12 2 5 -18 9 4 8 17 -9 3 6 -17 8 5 10 18 -10 3 6 -25 13zm31 -16l-12 -35 24 -8 2 6 -17 6 3 8 15 -5 2 6 -15 5 5 15 -7 2zm31 -8l-8 -37 28 -6 1 7 -20 4 2 8 18 -4 1 6 -18 4 2 10 20 -4 1 6 -27 6zm34 -6l1 -38 8 0 14 26 1 -25 7 0 -1 38 -8 -1 -14 -25 -1 25 -7 0zm64 -9l7 4c-2,4 -4,6 -7,8 -3,1 -7,2 -11,1 -4,-1 -8,-3 -11,-7 -2,-4 -3,-9 -2,-15 1,-6 3,-10 7,-13 4,-3 8,-4 14,-3 4,1 7,3 10,6 1,2 2,4 2,7l-7 1c0,-2 -1,-4 -2,-5 -1,-2 -3,-2 -5,-3 -3,0 -5,0 -7,2 -2,2 -4,5 -4,9 -1,5 -1,8 0,10 2,3 4,4 6,5 2,0 4,0 6,-1 2,-1 3,-3 4,-6zm11 16l12 -35 26 9 -2 6 -19 -6 -2 7 17 7 -2 5 -17 -6 -4 10 20 7 -2 6 -27 -10zm73 35l-7 -4 1 -9 -12 -8 -7 6 -7 -4 31 -25 7 4 -6 40zm-5 -20l3 -15 -11 10 8 5zm35 28l4 7c-3,2 -7,3 -10,3 -3,0 -6,-2 -9,-5 -4,-3 -6,-7 -6,-12 0,-4 2,-9 6,-13 4,-5 8,-7 13,-8 5,0 9,1 13,5 3,3 5,6 5,10 1,3 0,5 -1,8l-7 -4c1,-1 1,-3 1,-5 0,-2 -1,-3 -3,-5 -2,-1 -4,-2 -7,-2 -2,0 -5,2 -8,6 -3,3 -5,6 -5,9 0,2 1,5 3,7 1,1 3,2 5,2 2,0 4,-1 6,-3zm23 45l-5 -6 4 -8 -9 -12 -9 4 -5 -7 38 -12 5 6 -19 35zm2 -20l8 -13 -14 5 6 8zm33 5l7 12c1,3 2,5 3,7 0,2 0,4 -1,7 0,2 -2,4 -3,6 -2,2 -4,3 -7,5 -3,2 -6,2 -8,3 -3,0 -5,0 -8,0 -1,-1 -3,-2 -5,-4 -1,-1 -2,-3 -4,-5l-7 -12 33 -19zm-2 10l-21 12 2 5c1,2 2,3 3,4 1,1 2,1 3,2 1,0 2,0 4,0 1,-1 4,-2 6,-3 3,-1 4,-3 6,-4 1,-1 1,-2 2,-3 0,-2 0,-3 -1,-4 0,-1 -1,-3 -2,-6l-2 -3zm-12 42l35 -14 10 26 -6 2 -8 -18 -7 3 6 17 -5 2 -7 -17 -10 4 8 19 -6 2 -10 -26zm13 32l37 -6 2 11 -24 11 26 2 2 11 -37 7 -1 -7 29 -5 -30 -2 -1 -8 27 -12 -29 5 -1 -7zm8 53l16 0 21 -15 0 9 -14 9 15 8 0 9 -22 -13 -16 1 0 -8z"></path>  <path class="fil9" d="M156 628l-16 -20 3 -2 13 22 0 0zm-14 4c0,0 0,-1 0,-2 -1,-1 -1,-1 -1,-2 0,0 0,-1 -1,-1 0,-1 0,-1 -1,-2 -1,-1 -2,-2 -3,-2 -1,0 -3,1 -4,2 -1,0 -2,1 -3,3 0,1 -1,2 -1,3 0,1 -1,3 -1,4 0,1 0,2 0,3l-3 0c0,0 -1,-1 -1,-1 0,-1 0,-2 1,-3 0,-1 0,-2 0,-3 0,-1 1,-2 1,-3 1,-2 1,-3 2,-4 1,-1 2,-2 3,-3 1,-1 2,-2 3,-2 2,0 3,0 4,0 1,1 2,1 3,2 1,0 1,1 2,2 1,1 2,2 2,4 1,2 1,3 1,5l-3 0zm27 13l-3 -4 -25 19 -2 -4 6 -5 0 0c0,0 -1,0 -1,0 -1,0 -1,-1 -2,-1 -1,0 -1,-1 -2,-1 0,0 -1,-1 -1,-2 -1,-1 -2,-2 -3,-4 0,-1 0,-3 0,-4 0,-2 1,-3 1,-4 1,-1 2,-2 3,-3 1,-1 2,-2 4,-2 1,0 2,0 3,0 2,0 3,1 4,1 1,1 2,2 3,3 0,0 1,1 1,1 0,1 1,2 1,2 0,1 0,2 1,3 0,0 0,1 0,2l0 0 6 -5 -14 -18 1 0 22 24 -3 2zm-16 0c1,-1 1,-3 0,-4 0,-2 0,-3 -1,-4 -1,-1 -2,-2 -3,-2 -1,-1 -2,-1 -2,-1 -1,0 -2,0 -3,0 -1,1 -1,1 -2,1 -1,1 -1,1 -1,2 -1,1 -1,2 -1,2 -1,1 0,2 0,3 0,1 0,2 1,3 1,1 2,1 3,2 0,0 1,1 2,1 1,0 2,0 3,0 1,0 2,-1 2,-1l2 -2zm35 18l-6 -6 -7 7 -6 -6c-2,-2 -4,-3 -6,-3 -2,0 -3,1 -5,3 -1,1 -1,2 -2,3 0,1 0,2 0,3 0,1 0,2 1,3 0,1 1,2 2,2 1,1 2,2 3,2 0,0 0,0 0,-1 1,0 1,0 1,0 0,-1 1,-1 2,-2 0,0 1,0 1,0 1,0 2,0 2,0 1,0 2,0 2,1 1,0 1,0 1,1 0,0 0,1 0,1 0,1 0,1 0,1 0,1 0,1 -1,2 0,0 -1,1 -1,1 -1,0 -1,0 -2,1 0,0 -1,0 -1,0 -1,0 -1,0 -2,0 0,1 0,1 0,2 0,1 0,1 0,2 0,1 0,1 0,2 0,0 0,1 0,2l-4 0c-1,-2 -1,-3 -1,-4 0,0 1,-1 1,-2 0,-1 0,-2 0,-2 0,-1 0,-1 0,-1 -1,-1 -2,-2 -3,-3 -2,-1 -3,-3 -4,-5 0,-1 -1,-3 -1,-4 0,-2 1,-3 1,-5 1,-1 2,-2 3,-3 1,-2 2,-2 3,-3 1,0 3,-1 4,0 1,0 2,0 4,1 1,0 2,1 3,2l4 4 5 -5 -16 -15 2 -1 24 23 -1 2zm10 8l-4 -3 -21 23 -3 -3 21 -23 -4 -4 2 -2 5 4c0,-1 1,-2 1,-3 1,-2 1,-3 1,-4 0,0 0,-1 0,-2 0,-1 0,-1 0,-2 -1,0 -1,-1 -1,-1 -1,-1 -1,-1 -1,-1 -1,-1 -2,-1 -2,-2 -1,0 -2,0 -2,0 -1,0 -1,0 -1,1 -1,0 -1,0 -1,0 0,0 -1,1 -1,1 0,0 0,1 0,1 -1,1 -1,2 -1,2 0,1 0,2 0,3l-3 -1 0 -2c0,-1 0,-3 0,-4 1,-1 1,-2 2,-3 1,0 2,-1 2,-1 1,-1 2,-1 3,-1 1,0 2,1 3,1 1,1 2,1 3,2 2,2 3,3 3,5 1,1 1,3 1,4 0,2 0,4 -1,5 -1,2 -2,3 -3,5l5 3 -3 2zm24 15l-5 -3 0 1 -18 25 -4 -2 7 -9 0 0c-1,0 -2,0 -2,0 -1,0 -2,0 -3,0 0,-1 -1,-1 -2,-1 -1,-1 -2,-1 -2,-2 -2,-1 -3,-2 -4,-3 -1,-2 -1,-3 -1,-5 -1,-1 0,-2 0,-4 0,-1 1,-3 1,-4 1,0 2,1 3,1 1,0 2,0 2,0 1,0 2,0 2,-1 1,0 1,0 1,-1 1,0 1,0 1,-1 0,0 0,-1 1,-1 0,-1 0,-1 0,-2 0,-1 0,-1 0,-2l0 -1 -6 -4 2 -2 28 19 -1 2zm-19 -12c0,2 0,3 -1,4 0,1 -1,2 -1,3 -1,0 -1,1 -2,1 -1,1 -1,1 -2,2 -1,0 -1,0 -2,0 -1,0 -2,0 -3,-1 0,1 -1,2 -1,3 0,1 0,2 1,3 0,0 0,1 1,2 0,0 1,1 2,2 0,0 1,0 2,1 1,0 2,0 2,1 1,0 2,0 3,0 1,0 2,0 2,-1l9 -12 1 -1 -11 -7 0 0zm57 28l-1 2 -5 -2 0 1 -13 28 -4 -2 9 -20 -10 -5 0 0c0,1 1,2 1,3 1,0 1,1 1,2 1,1 1,2 1,3 0,1 0,2 -1,3 0,1 -1,2 -1,2 -1,1 -1,1 -2,2 -1,0 -2,0 -3,0 -1,0 -2,0 -3,0l0 0c1,1 1,2 1,2 0,1 1,2 1,3 0,1 0,2 0,3 1,1 1,2 1,4l-4 0c0,-1 0,-1 0,-2 0,-1 0,-1 -1,-2 0,-1 0,-2 0,-3 0,0 0,-1 -1,-2 0,-1 0,-2 0,-2 0,-1 -1,-2 -1,-2 -1,-1 -2,-1 -2,-2 -1,0 -1,-1 -2,-2 0,0 0,-1 0,-2 0,0 0,-1 0,-1 0,-1 0,-1 1,-1 0,0 0,-1 0,-1 1,0 1,0 2,0 0,0 1,0 1,1 1,0 2,1 3,2 0,1 1,2 1,3 1,1 2,1 3,1 1,-1 2,-1 2,-2 1,-1 1,-2 1,-3 0,-2 -1,-3 -1,-4 -1,-1 -2,-2 -3,-3 -1,-2 -2,-3 -3,-3l2 -3 18 8 2 -5 0 -1 -23 -11 1 -1 32 14zm12 7l-5 -3 -1 2 -13 29 -4 -2 13 -28 1 -2 -6 -2 1 -2 14 7 0 1zm25 7l-5 -1 -8 30 -4 -1 4 -18 -11 -3c0,1 0,2 -1,3 0,0 0,1 0,1 -1,1 -1,1 -1,1 0,0 -1,0 -1,0 -1,0 -2,0 -2,-1 -1,-1 -2,-2 -2,-2 0,-1 -1,-2 -1,-3 0,-1 0,-2 0,-2 0,-1 1,-1 1,-1 0,0 1,0 1,0 0,0 1,0 1,0 1,0 1,0 2,0l15 4 3 -9 -19 -8 -4 1 0 -2 33 8 -1 3zm-7 -13c0,0 0,-1 1,-1 1,-1 1,-1 2,-1 1,0 1,1 1,1 1,0 1,0 1,1 0,0 1,0 1,1 0,0 0,1 0,1 -1,1 -1,1 -2,2 -1,0 -1,0 -2,0 -1,0 -1,0 -1,0 -1,-1 -1,-1 -1,-1 0,-1 0,-1 0,-1 -1,-1 -1,-1 0,-2zm3 43l1 -5 5 1 -1 5 -5 -1zm14 2l1 -4 5 0 -1 5 -5 -1zm14 2l1 -5 5 0 0 5 -6 0zm45 -32l-25 3 0 -2 0 -1 25 -2 0 2zm-3 14c-1,0 -2,0 -2,-1 -1,0 -1,0 -2,0 -1,0 -1,0 -2,0 0,0 -1,0 -1,0 -2,0 -3,0 -4,2 -1,1 -1,2 -1,4 0,1 1,2 1,3 1,2 2,3 3,4 1,0 2,1 3,2 1,1 2,1 3,2l-3 3c0,0 0,0 -1,-1 0,0 -1,-1 -2,-1 -1,-1 -1,-1 -2,-2 -1,-1 -2,-2 -3,-3 -1,-1 -1,-2 -2,-3 0,-1 -1,-3 -1,-4 0,-2 0,-3 0,-4 1,-2 1,-2 2,-3 1,-1 2,-2 3,-2 1,0 2,-1 3,-1 1,0 3,0 5,0 1,1 3,1 5,2l-2 3zm24 -18l-5 1 0 1 4 31 -4 0 -1 -8 0 0c0,0 -1,1 -1,1 -1,1 -1,1 -2,1 0,1 -1,1 -2,1 0,0 -1,0 -2,1 -2,0 -3,0 -5,-1 -1,0 -2,-1 -3,-2 -2,0 -2,-1 -3,-3 -1,-1 -1,-2 -1,-3 -1,-2 0,-3 0,-4 0,-2 1,-3 2,-4 1,-1 2,-2 3,-2 1,-1 2,-1 4,-1 0,0 1,-1 1,-1 1,0 2,0 2,1 1,0 2,0 3,0 0,1 1,1 2,2l0 0 -1 -8 -22 2 -1 -2 32 -5 0 2zm-7 15c-1,-1 -3,-2 -4,-3 -1,0 -3,0 -4,0 -2,0 -3,0 -3,1 -1,1 -2,1 -2,2 -1,1 -1,1 -1,2 0,1 0,2 0,3 0,0 0,1 0,2 1,1 1,1 2,2 1,0 1,1 2,1 1,0 2,0 3,0 1,0 2,0 3,-1 1,0 2,-1 3,-2 0,0 1,-1 1,-2 0,-1 0,-2 0,-2l0 -3zm34 -22l-8 3 3 10 -9 2c-2,1 -4,2 -5,3 -1,2 -1,4 0,6 0,1 0,2 1,3 1,1 2,1 2,2 1,0 2,0 4,0 1,0 2,0 3,0 1,-1 2,-1 3,-2 0,0 0,0 0,-1 -1,0 -1,0 -1,0 0,-1 0,-2 0,-2 0,-1 0,-2 0,-2 1,-1 1,-2 1,-2 1,-1 1,-1 2,-1 1,0 1,0 1,0 1,0 1,0 2,0 0,0 1,1 1,1 0,0 0,1 1,2 0,0 0,1 0,1 0,1 0,1 0,2 -1,0 -1,1 -1,1 0,1 -1,1 -1,2 1,0 1,1 2,1 0,1 1,1 1,1 1,1 2,1 2,1 1,1 1,1 2,1l-3 4c-1,-1 -1,-1 -2,-2 -1,0 -2,-1 -2,-1 -1,-1 -1,-1 -2,-2 0,0 -1,0 -1,-1 -1,1 -2,2 -4,2 -2,1 -4,1 -6,1 -1,-1 -3,-1 -4,-2 -2,-1 -3,-2 -4,-3 0,-1 -1,-2 -2,-4 0,-1 0,-3 0,-4 0,-1 1,-2 2,-4 0,-1 1,-2 2,-2 2,-1 3,-2 5,-2l5 -2 -2 -6 -21 4 0 2 -1 -4 33 -9 1 3zm13 -4l-6 1 1 1 8 30 -4 1 -8 -30 0 -1 -6 3 -1 -3 6 -2c0,-1 -1,-2 -2,-3 -1,-1 -1,-2 -2,-3 -1,0 -2,-1 -2,-1 -1,0 -2,0 -2,0 -1,0 -1,0 -2,0 0,0 -1,0 -1,0 -1,0 -2,1 -2,1 -1,0 -1,1 -1,1 -1,1 -1,1 -1,2 0,0 0,1 0,1 0,0 1,0 1,1 0,0 0,0 0,1 1,0 1,1 2,2 1,0 1,1 3,1l-5 1c-1,0 -2,-1 -3,-2 -1,-1 -1,-2 -2,-3 0,-1 0,-2 0,-3 0,-1 1,-2 1,-3 1,-1 2,-1 3,-2 1,-1 2,-1 3,-2 2,0 4,0 5,0 2,0 4,1 5,2 1,1 2,2 3,3 1,2 2,3 3,5l5 -1 1 2zm25 -12l-5 2 13 29 -4 1 -5 -9 0 0c0,0 0,1 -1,1 0,1 -1,1 -1,2 -1,0 -2,1 -2,1 -1,1 -2,1 -3,2 -2,1 -3,1 -5,1 -1,0 -3,0 -4,-1 -1,-1 -3,-1 -4,-2 -1,-2 -2,-3 -2,-4 1,-1 1,-1 2,-2 0,0 1,-1 1,-2 0,0 0,-1 0,-2 0,0 0,-1 0,-1 0,0 0,-1 -1,-1 0,-1 0,-1 0,-1 -1,-1 -1,-1 -2,-2 0,0 -1,0 -2,-1l-6 2 0 1 -2 -3 22 -8 9 -6 2 3zm-21 9c1,1 2,2 3,3 1,0 1,1 2,2 0,1 0,2 0,3 1,0 1,1 0,2 0,1 0,1 -1,2 0,1 -1,2 -1,2 0,1 1,2 2,2 1,1 1,1 2,1 1,0 2,0 2,0 1,0 2,0 3,-1 1,0 1,0 2,-1 1,0 2,-1 2,-2 1,0 1,-1 1,-2 1,0 1,-1 1,-2l-6 -14 -12 5zm48 -12c0,0 -1,0 -1,0 0,1 0,1 0,1 -2,1 -3,1 -4,2 -1,0 -2,0 -3,0 -1,0 -2,-1 -3,-1 -1,-1 -2,-2 -2,-3 -1,0 -1,-1 -1,-2 -1,0 -1,-1 -1,-2 0,0 0,0 0,0 -2,1 -4,3 -6,5 -1,-1 -1,-2 -2,-3 3,-2 6,-3 9,-5 9,-6 17,-13 25,-19 1,0 1,1 1,1 -1,1 -5,2 -4,3l1 1 18 26 -4 2c-6,-8 -12,-17 -17,-25 -1,0 -1,-1 -1,-1 -1,-1 -2,-1 -1,1 -3,1 -4,4 -7,5 0,0 1,0 1,0 0,0 1,1 2,1 0,0 1,0 1,1 1,0 2,1 2,1 1,1 1,1 1,2 1,1 2,2 2,3 0,1 0,2 0,4 0,1 0,2 0,3 -1,2 -1,3 -2,4l0 0c1,0 2,0 4,1 1,0 2,0 3,0 2,0 3,1 4,1 1,0 2,0 3,1l-1 3c0,0 -1,0 -3,-1 -1,0 -2,0 -3,0 -2,-1 -3,-1 -5,-1 -1,0 -2,0 -4,0 0,1 -1,1 -1,2 -1,0 -1,0 -2,1 0,0 -1,1 -2,1 0,0 -1,0 -2,0 0,0 -1,0 -1,0 -1,0 -1,0 -2,-1 0,-1 0,-2 0,-2 0,-1 1,-2 2,-3 1,0 2,-1 3,-1 1,0 2,-1 3,-1 0,0 0,0 1,-1 0,0 0,-1 1,-2 0,0 0,-1 0,-2 1,-1 1,-1 1,-2 0,-1 0,-2 -1,-3 0,0 0,-1 -1,-2 0,-1 -1,-1 -2,-2 0,0 -1,-1 -2,-1 -1,0 -2,0 -3,0 -1,0 -2,0 -3,1 0,0 -1,1 -1,2 -1,0 -1,1 -1,1 0,1 0,1 0,2 0,0 1,1 1,1 0,0 1,1 1,1 1,1 1,1 2,1 1,0 1,0 2,0 1,0 1,-1 2,-1 0,0 1,-1 1,-1 1,1 1,2 2,3zm39 -30c-4,3 -7,7 -10,10 0,1 -1,2 -2,3 0,0 0,1 0,1 3,0 6,0 9,0 3,0 5,0 8,-1 1,1 1,3 1,4 -2,0 -4,1 -5,1 -2,0 -4,0 -5,0 -2,0 -4,0 -5,0 -2,0 -3,0 -5,-1 -1,0 -3,0 -4,0 -1,-1 -2,-1 -3,-1 0,-1 0,-3 1,-4 1,0 1,0 2,1 0,0 1,0 1,0 1,0 1,-1 1,-1 1,0 1,0 1,0 1,-1 1,-2 1,-3 0,-1 -1,-2 -2,-3 0,-1 -1,-1 -2,-1 0,-1 -1,-1 -2,-2 0,0 -1,0 -2,0 0,0 -1,-1 -2,-1 0,0 0,0 0,0 -3,2 -9,3 -7,5l1 2 0 0c-1,0 -1,1 -2,2 -1,-1 -1,-3 -2,-4 5,-5 10,-9 15,-14 2,-2 4,-4 5,-5 1,0 1,1 2,2 -3,3 -6,6 -9,9 2,0 3,1 5,2 1,0 2,1 3,2 1,1 1,1 1,2 1,0 1,1 1,1 0,0 0,0 0,0 3,-3 6,-5 8,-8 1,1 2,1 3,2zm7 -31c-1,2 -2,3 -3,4l22 22 -3 3c-3,-4 -7,-7 -11,-11 0,0 0,0 0,0 0,4 -1,8 -2,12 -1,0 -2,-1 -3,-1 0,-4 1,-9 2,-14 0,0 0,0 0,0 -3,2 -5,4 -7,7 -1,1 -1,1 -2,2 -1,1 -1,2 -1,2 0,1 0,2 0,3 0,0 1,1 2,2 1,1 2,2 3,2 2,0 3,1 4,1 1,0 3,0 4,0 1,0 3,0 4,0 0,1 0,2 0,3 0,0 -1,0 -1,1 -1,0 -2,0 -3,0 -1,0 -2,0 -3,0 -1,0 -3,0 -4,-1 -1,0 -3,0 -4,-1 -1,-1 -2,-1 -4,-3 -1,-1 -2,-2 -2,-3 0,-1 0,-2 0,-3 0,-1 0,-2 1,-3 1,-2 2,-3 3,-4 2,-2 5,-5 7,-8 -2,-1 -3,-3 -5,-5 -6,6 -12,13 -18,19 -1,-1 -1,-1 -2,-2l13 -13 11 -13c1,1 2,2 2,2zm-14 1c-1,-1 -1,-1 -1,-2 0,-1 0,-2 1,-2 0,-1 0,-1 1,-1 0,0 0,0 1,0 0,0 0,0 1,0 0,0 1,0 1,0 0,1 1,2 1,3 0,0 -1,1 -1,2 0,0 -1,0 -1,0 -1,1 -1,1 -1,1 -1,0 -1,0 -1,0 -1,-1 -1,-1 -1,-1zm38 17l-4 -3 3 -4 4 2 -3 5zm8 -12l-4 -3 3 -4 4 2 -3 5zm8 -12l-5 -3 3 -4 4 2 -2 5z"></path>  <path class="fil9" d="M143 606c10,16 22,30 35,43 13,13 29,25 45,34l-1 3c-18,-9 -33,-21 -46,-34 -14,-13 -26,-28 -36,-44l3 -2zm86 80c10,6 21,11 32,15 12,5 24,8 37,12l-1 3c-13,-3 -25,-7 -37,-11 -11,-5 -22,-10 -33,-15l2 -4z"></path>  <path class="fil9" d="M340 718c20,-2 39,-5 57,-10 19,-5 36,-11 53,-20l2 3c-17,9 -35,16 -54,21 -18,5 -37,8 -57,9l-1 -3z"></path>  <path class="fil9" d="M456 685c14,-10 26,-19 37,-29 10,-9 20,-19 30,-31l2 2c-10,12 -19,23 -30,32 -10,10 -22,19 -37,29l-2 -3z"></path>  <path class="fil10" d="M160 801l360 0c13,0 23,10 23,23l0 99c0,13 -10,23 -23,23l-360 0c-13,0 -24,-10 -24,-23l0 -99c0,-13 11,-23 24,-23z"></path>  <path class="fil1" d="M156 795l360 0c13,0 24,11 24,24l0 98c0,13 -11,24 -24,24l-360 0c-13,0 -23,-11 -23,-24l0 -98c0,-13 10,-24 23,-24z"></path>  <path class="fil11" d="M169 892l30 0 0 1c0,4 1,7 3,9 3,1 7,2 12,2l8 0c5,0 8,0 10,-2 2,-1 3,-3 3,-6l0 -5c0,-3 -1,-5 -3,-6 -1,-2 -5,-2 -10,-3l-25 -3c-9,-1 -16,-4 -20,-9 -5,-4 -7,-12 -7,-21l0 -7c0,-6 1,-10 3,-15 2,-4 4,-7 7,-10 3,-2 6,-4 10,-5 4,-1 10,-1 18,-1l19 0c11,0 20,2 26,7 6,4 9,11 9,20l0 8 -29 0 0 -1c0,-4 -1,-6 -3,-8 -2,-1 -4,-2 -9,-2l-7 0c-5,0 -8,1 -10,2 -2,1 -3,3 -3,6l0 5c0,4 4,7 13,8l0 0 23 2c9,1 17,4 22,9 5,4 7,11 7,19l0 11c0,10 -3,18 -9,23 -6,6 -14,9 -24,9l-25 0c-13,0 -23,-2 -29,-7 -6,-5 -10,-12 -10,-22l0 -8zm115 35l0 -115 59 0c16,0 28,4 34,10 7,7 10,19 10,36l0 23c0,18 -3,29 -10,36 -6,7 -18,10 -34,10l-59 0zm31 -25l23 0c7,0 12,-2 14,-4 2,-3 3,-9 3,-19l0 -19c0,-9 -1,-16 -3,-18 -2,-3 -7,-4 -14,-4l-23 0 0 64zm124 -18l26 0 -12 -48 -2 0 -12 48zm-44 43l33 -115 48 0 32 115 -33 0 -5 -20 -36 0 -6 20 -33 0z"></path>  <path class="fil12" d="M164 888l30 0 0 1c0,4 1,7 3,9 2,2 6,2 12,2l7 0c5,0 8,0 10,-1 2,-2 3,-4 3,-7l0 -5c0,-3 -1,-5 -2,-6 -2,-1 -5,-2 -10,-3l-25 -2c-10,-1 -16,-4 -21,-9 -4,-5 -6,-12 -6,-22l0 -7c0,-5 1,-10 2,-14 2,-4 5,-8 8,-10 3,-3 6,-4 10,-5 4,-1 10,-2 18,-2l18 0c12,0 20,2 27,7 6,5 9,11 9,20l0 8 -30 0 0 -1c0,-4 -1,-6 -2,-7 -2,-2 -5,-2 -9,-2l-7 0c-5,0 -9,0 -10,1 -2,2 -3,4 -3,6l0 5c0,4 4,7 12,8l0 0 23 3c10,1 17,4 22,8 5,5 7,11 7,20l0 11c0,9 -2,17 -8,23 -6,5 -14,8 -24,8l-26 0c-13,0 -23,-2 -29,-7 -6,-4 -9,-12 -9,-22l0 -8zm115 36l0 -115 58 0c17,0 28,3 35,10 6,7 10,18 10,36l0 23c0,17 -4,29 -10,36 -7,6 -18,10 -35,10l-58 0zm31 -26l23 0c7,0 11,-1 14,-4 2,-2 3,-8 3,-18l0 -19c0,-10 -1,-16 -3,-19 -3,-2 -7,-4 -14,-4l-23 0 0 64zm124 -18l25 0 -11 -48 -2 0 -12 48zm-44 44l33 -115 47 0 33 115 -33 0 -5 -20 -37 0 -5 20 -33 0z"></path>  <text x="647" y="698" class="fil2 fnt0">S</text>  <text x="1085" y="698" class="fil2 fnt0">H</text>  <text x="1585" y="698" class="fil2 fnt0">I</text>  <text x="1817" y="698" class="fil2 fnt0">E</text>  <text x="2207" y="698" class="fil2 fnt0">L</text>  <text x="2548" y="698" class="fil2 fnt0">D </text>  <text x="689" y="931" class="fil2 fnt1">DEFENCE ACADEMY</text> </g></svg>